<svg xmlns="http://www.w3.org/2000/svg" width="612" height="612" version="1.0"><path d="M140.865 32.943c-41.335 0-64.571 21.371-64.571 65.036v450.122c0 40.843 20.891 62.228 62.192 62.228H590.51c41.303 0 62.226-20.32 62.226-62.228V97.979c0-42.6-20.923-65.036-63.523-65.036 0 0-448.491-.142-448.348 0z" style="fill:#fefefe;stroke:#fff;stroke-width:3.40799999" transform="translate(-58.515 -15.604)"/><path d="M569.372 461.472V160.658H160.658v300.814h408.714z" style="fill:#34353a;stroke:#fff;stroke-width:30.65500069" transform="translate(-58.515 -15.604)"/><path d="m164.46 164.49 176.32 178.668c13.069 13.17 36.848 13.014 49.641.12l176.199-177.35M170.514 451.566 305.609 313.46M557.966 449.974 426.514 315.375" style="fill:#34353a;stroke:#fff;stroke-width:30.65500069" transform="translate(-58.515 -15.604)"/></svg>