<svg xmlns="http://www.w3.org/2000/svg" width="430" height="430" version="1"><path fill="#FFFFFF" d="M412 246A199 199 0 0 0 184 18 121 121 0 0 0 18 184c-2 10-2 20-2 31a200 200 0 0 0 230 197 120 120 0 0 0 184-102c0-24-6-45-18-64zm-102 60c-9 12-21 21-37 28s-36 11-58 11c-26 0-48-5-66-14-12-7-22-16-30-27-7-12-11-23-11-33 0-7 2-12 7-17 5-4 11-7 18-7 6 0 11 2 15 6 4 3 8 8 10 15 4 8 7 15 11 20s10 9 17 13c7 3 16 5 28 5 16 0 29-4 38-11 10-6 15-15 15-25 0-8-3-14-8-19s-12-9-20-12l-35-8-48-15c-13-6-24-14-32-23-7-10-11-22-11-37 0-14 4-26 12-37s20-19 35-25c16-6 34-8 54-8 17 0 31 1 43 5s23 9 31 16c8 6 13 13 17 20s6 13 6 20c0 6-3 12-7 17-5 5-11 8-18 7-6 0-11-1-15-4l-11-14c-4-10-10-17-17-22-6-5-17-8-32-8-14 0-25 3-34 9-8 5-12 12-12 19 0 5 1 9 4 13l12 9 15 6 26 6 41 11c13 4 23 9 32 15 8 5 15 13 20 22 5 8 7 19 7 32 1 15-4 29-12 41z"/></svg>