<svg xmlns="http://www.w3.org/2000/svg" viewBox="0 0 263 70"><defs><style>.a,.f{fill:#403f3f}.a{stroke:#231f20;stroke-width:.13px;stroke-miterlimit:10}.d{fill:#fdc110}.j{fill:#f79025}</style></defs><path class="a" d="M26.23 52.65l.24 1.24.27-1.24 1.61-5.49H29l1.61 5.49.26 1.25.25-1.25 1.36-5.49h.69l-2 7.7h-.6L28.9 49l-.19-.83-.21.83-1.76 5.91h-.6l-2-7.7h.69zM40.86 54.87h-.63v-3.55h-4.38v3.54h-.63v-7.7h.63v3.62h4.37v-3.62h.63zM47.51 51.14h-3.45v3.19h4v.53h-4.64v-7.7H48v.54h-4v2.9h3.45zM50.72 51.38v3.48h-.63v-7.7h2.57a2.92 2.92 0 011.9.54 1.93 1.93 0 01.66 1.58 1.82 1.82 0 01-.35 1.1 2 2 0 01-1 .71 1.67 1.67 0 011 .64 2 2 0 01.31 1.16v.72a2.26 2.26 0 00.08.64 1 1 0 00.28.47v.13h-.65a1.05 1.05 0 01-.27-.53 3.15 3.15 0 01-.08-.71v-.7a1.43 1.43 0 00-.46-1.12 1.85 1.85 0 00-1.28-.41zm0-.54h1.86a2.28 2.28 0 001.52-.42 1.43 1.43 0 00.48-1.13 1.46 1.46 0 00-.48-1.17 2.19 2.19 0 00-1.45-.41h-1.93zM61.82 51.14h-3.45v3.19h4v.53h-4.64v-7.7h4.6v.54h-4v2.9h3.45zM71.73 51.14h-3.46v3.19h4v.53h-4.63v-7.7h4.6v.54h-4v2.9h3.45zM76.86 53.52l.15.54.15-.54 2.32-6.35h.68l-2.87 7.7h-.6l-2.87-7.7h.69zM86.23 51.14h-3.46v3.19h4v.53h-4.63v-7.7h4.6v.54h-4v2.9h3.45zM89.43 51.38v3.48h-.63v-7.7h2.57a2.92 2.92 0 011.9.54 1.93 1.93 0 01.66 1.58 1.82 1.82 0 01-.35 1.1 2 2 0 01-1 .71 1.67 1.67 0 011 .64 2 2 0 01.31 1.16v.72a2.26 2.26 0 00.08.64 1 1 0 00.28.47v.13h-.65a1.05 1.05 0 01-.27-.53 3.15 3.15 0 01-.08-.71v-.7a1.43 1.43 0 00-.46-1.12 1.85 1.85 0 00-1.28-.41zm0-.54h1.86a2.28 2.28 0 001.52-.42 1.43 1.43 0 00.48-1.13 1.46 1.46 0 00-.48-1.17 2.19 2.19 0 00-1.45-.41h-1.93zM98.63 51.44l2.37-4.28h.73l-2.81 4.89v2.81h-.63V52l-2.79-4.86h.73zM106.67 54.87v-7.7h2.69a3.18 3.18 0 012.33.9 3.11 3.11 0 01.92 2.31v1.27a3.1 3.1 0 01-.92 2.31 3.19 3.19 0 01-2.33.9zm1.54-6.51v5.33h1.14a1.51 1.51 0 001.23-.57 2.23 2.23 0 00.47-1.46v-1.29a2.21 2.21 0 00-.47-1.45 1.51 1.51 0 00-1.23-.57zM118.95 51.48h-2.86v2.2h3.4v1.18h-4.94v-7.7h4.93v1.19h-3.38v1.94h2.86zM125.57 53.2h-2.5l-.52 1.66h-1.61l2.6-7.7h1.58l2.59 7.7h-1.61zm-2.12-1.2h1.74l-.85-2.71zM130.83 53.68h3.45v1.18h-5v-7.7h1.54zM140.38 54.87h-.63v-7.7h.63zM147.38 53a1.21 1.21 0 00-.47-1 4.8 4.8 0 00-1.6-.72 5.35 5.35 0 01-1.87-.84 1.65 1.65 0 01-.64-1.37 1.77 1.77 0 01.72-1.45 2.87 2.87 0 011.83-.57 2.72 2.72 0 011.89.64 2 2 0 01.69 1.63h-.59a1.64 1.64 0 00-.55-1.26 2 2 0 00-1.43-.5 2.13 2.13 0 00-1.41.43 1.31 1.31 0 00-.51 1 1.19 1.19 0 00.46 1 4.74 4.74 0 001.63.71 5.33 5.33 0 011.86.87A1.68 1.68 0 01148 53a1.71 1.71 0 01-.75 1.45 3.11 3.11 0 01-1.89.55 3.43 3.43 0 01-2-.58 1.86 1.86 0 01-.82-1.69h.59a1.48 1.48 0 00.67 1.33 2.75 2.75 0 001.53.44 2.38 2.38 0 001.44-.41 1.24 1.24 0 00.61-1.09zM157.54 52.72h-3.38l-.78 2.15h-.66l2.83-7.7h.6l2.81 7.7h-.66zm-3.18-.57h3l-1.46-4.08zM168.43 53a1.21 1.21 0 00-.47-1 4.78 4.78 0 00-1.6-.72 5.35 5.35 0 01-1.87-.84 1.66 1.66 0 01-.64-1.37 1.77 1.77 0 01.72-1.45 2.87 2.87 0 011.83-.57 2.72 2.72 0 011.89.64 2 2 0 01.69 1.63h-.59a1.64 1.64 0 00-.55-1.26 2 2 0 00-1.43-.5A2.13 2.13 0 00165 48a1.31 1.31 0 00-.51 1 1.19 1.19 0 00.46 1 4.74 4.74 0 001.63.71 5.33 5.33 0 011.86.87 1.68 1.68 0 01.64 1.38 1.71 1.71 0 01-.75 1.45 3.11 3.11 0 01-1.89.55 3.43 3.43 0 01-2-.58 1.86 1.86 0 01-.82-1.69h.59a1.48 1.48 0 00.69 1.31 2.75 2.75 0 001.53.44 2.38 2.38 0 001.44-.41 1.24 1.24 0 00.56-1.03zM176.49 47.7h-2.62v7.16h-.63V47.7h-2.71v-.54h6zM182.56 51.14h-3.45v3.19h4v.53h-4.63v-7.7h4.6v.54h-4v2.9h3.45zM189.56 52.72h-3.38l-.78 2.15h-.66l2.83-7.7h.6l2.81 7.7h-.66zm-3.18-.57h3l-1.46-4.08zM193.57 54.33h4v.53h-4.61v-7.7h.63zM203.46 50.23h-.72v-.87h.72zm0 4.63h-.72V54h.72zM207.09 51.83a7.79 7.79 0 01-.73 3.46 4.56 4.56 0 01-1.64 2l-.14-.37a4.33 4.33 0 001.31-1.92 8.27 8.27 0 00.57-3.16v-.11a8.15 8.15 0 00-.58-3.15 4.48 4.48 0 00-1.33-1.95l.14-.37a4.54 4.54 0 011.63 2 7.82 7.82 0 01.74 3.44z"/><path d="M178.82 19.46a14.4 14.4 0 00-3.21-4.72 14.91 14.91 0 00-4.86-3.13 17.15 17.15 0 00-12.28 0 14.89 14.89 0 00-4.86 3.13 14.36 14.36 0 00-3.21 4.72 14.9 14.9 0 00-1.17 5.91 14.9 14.9 0 001.17 5.91 14.36 14.36 0 003.2 4.72 14.84 14.84 0 004.86 3.13 17.15 17.15 0 0012.28 0 14.86 14.86 0 004.87-3.13 14.4 14.4 0 003.21-4.72 14.93 14.93 0 001.18-5.91 14.93 14.93 0 00-1.18-5.91zm-10.34.07a1.74 1.74 0 11-1.9 1.73 1.82 1.82 0 011.89-1.73zM160.77 17c1.05 0 1.9 1.35 1.9 3s-.85 3-1.9 3-1.9-1.35-1.9-3 .85-3 1.9-3zm13.92 10.9a10.67 10.67 0 01-10.09 7.3 10.67 10.67 0 01-10.09-7.3.73.73 0 01.69-1H174a.73.73 0 01.69 1z" fill="#a0cc3a"/><path d="M132.07 2.06A2.94 2.94 0 01135 5v30.92a2.94 2.94 0 01-2.94 2.94 2.94 2.94 0 01-2.94-2.94V5a2.94 2.94 0 012.95-2.94z" fill="#70a6d9"/><rect class="d" x="139.63" y="11.88" width="5.88" height="26.98" rx="2.94" ry="2.94"/><rect class="d" x="139.63" y="3.24" width="5.88" height="5.88" rx="2.94" ry="2.94"/><path d="M124.34 17.3c0-4.24-2.43-5.42-5.42-5.42a.46.46 0 00-.46.46l1.66 4.54a8.86 8.86 0 00-5.12-4.57 16.27 16.27 0 00-11.65 0 14.13 14.13 0 00-4.61 3 13.63 13.63 0 00-3 4.48 14.14 14.14 0 00-1.11 5.61 14.14 14.14 0 001.03 5.6 13.62 13.62 0 003 4.48 14.08 14.08 0 004.61 3 16.27 16.27 0 0011.65 0c1.29-.52 2.89-1.41 5.14-4.69l-1.66 4.66a.46.46 0 00.46.46c3 0 5.42-.33 5.42-5.42zM117.21 29a8.77 8.77 0 01-1.81 2.88 8.16 8.16 0 01-2.75 1.9 8.92 8.92 0 01-3.53.68 8.77 8.77 0 01-3.48-.68 8.16 8.16 0 01-2.75-1.9 8.77 8.77 0 01-1.81-2.88 10.39 10.39 0 010-7.22 8.75 8.75 0 011.81-2.88 8.18 8.18 0 012.75-1.9 8.79 8.79 0 013.48-.68 8.94 8.94 0 013.53.68 8.18 8.18 0 012.75 1.9 8.75 8.75 0 011.81 2.88 10.39 10.39 0 010 7.22z" fill="#d3367d"/><path class="f" d="M206.86 20a3.4 3.4 0 00-2.86 4.06 3.47 3.47 0 106.83-1.17 3.39 3.39 0 00-3.97-2.89z"/><path class="f" d="M239.05 27.73l-.61-3.28-1.12-6-1.12-6-.61-3.28a2.77 2.77 0 00-3.24-2.22l-8.5 1.58-11.21 2.07-11.23 2.09-10.32 1.91a2.78 2.78 0 00-1.53.85l-6.29 6.83a2.77 2.77 0 00-.69 2.39l.86 4.64.82 4.42a2.77 2.77 0 001.82 2.12l7.92 2.72a2.78 2.78 0 001.41.11l10.51-2 11.23-2.09 11.23-2.09 8.5-1.58a2.77 2.77 0 002.17-3.19zm-51.62 1.92a1.64 1.64 0 111.34-1.89 1.64 1.64 0 01-1.34 1.9zm11.76 0a4.7 4.7 0 11-1.59-9.27 4.68 4.68 0 013.86.94v.11l-.66.75h-.11a3.81 3.81 0 00-2.92-.69 3.4 3.4 0 00-2.77 4.14 3.6 3.6 0 006.56 1.28h.11l.87.49v.11a4.68 4.68 0 01-3.35 2.15zm9.06-1.55a4.7 4.7 0 113.9-5.44 4.63 4.63 0 01-3.9 5.45zm19.18-3.5l-.9-5.27a2.4 2.4 0 00-2.88-2.26 2.58 2.58 0 00-2.22 3.13l.9 5.27-1.27.22-.9-5.27a2.4 2.4 0 00-2.88-2.26 2.58 2.58 0 00-2.22 3.13l.9 5.27-1.26.22-1.51-8.85 1.18-.2.2 1.17a3.63 3.63 0 012.73-1.9 3.28 3.28 0 013.43 1.31 3.56 3.56 0 012.94-2.4 3.39 3.39 0 014.1 3.07l.92 5.4z"/><path d="M150.5 65.06a40.79 40.79 0 00-8.77-.77 85.8 85.8 0 00-8.86.51c-2.94.31-5.87.78-8.77 1.33-1.45.27-2.89.62-4.34.92l-4.3 1.08h-.07a2.25 2.25 0 01-1.09-4.36h.19L119 63c1.52-.18 3-.41 4.55-.56 3-.3 6.08-.53 9.13-.58a88.3 88.3 0 019.14.28c1.52.14 3 .31 4.54.56s3 .51 4.54.89a.74.74 0 01-.34 1.45z" fill="#ee3331"/><path d="M63.37 33.38a2.38 2.38 0 00-.35 0h-.25a2.37 2.37 0 00-1 .33 4.3 4.3 0 01-.85.43 4.62 4.62 0 01-1.62.32 3.76 3.76 0 01-2.78-1.05 4.79 4.79 0 01-1.05-3.48V17a.53.53 0 01.53-.53h5.38a2.29 2.29 0 100-4.59H56a.53.53 0 01-.53-.53V6.68a2.94 2.94 0 10-5.88 0v4.68a.53.53 0 01-.53.53h-.17a2.29 2.29 0 100 4.59h.17a.53.53 0 01.53.53v13.27a10.93 10.93 0 00.7 4.07 8 8 0 001.89 2.89 7.62 7.62 0 002.82 1.7 10.59 10.59 0 003.48.57 9.54 9.54 0 003.25-.51 10 10 0 001.84-.9 2.39 2.39 0 00-.2-4.69z" fill="#69bc6b"/><path d="M92.06 25A14.52 14.52 0 0091 19.42a12.85 12.85 0 00-7.2-7.12 14.24 14.24 0 00-5.34-1 14.06 14.06 0 00-5.56 1.08 13.76 13.76 0 00-4.41 3 13.57 13.57 0 00-2.94 4.48 14.79 14.79 0 00-1.06 5.66 14.13 14.13 0 001.17 5.88 13.34 13.34 0 003.18 4.42 14 14 0 004.66 2.81 16 16 0 005.56 1 18.62 18.62 0 003.24-.3 17.37 17.37 0 003.26-.92 15.14 15.14 0 003-1.59 11.39 11.39 0 001.65-1.4 2.4 2.4 0 00.74-.8l.12-.12v-.09a2.38 2.38 0 00-3.4-3h-.06l-.06.07a2.4 2.4 0 00-.68.71A9.48 9.48 0 0183.8 34a12.73 12.73 0 01-4.59.89 9.83 9.83 0 01-3.21-.5 8.6 8.6 0 01-2.72-1.51 7.88 7.88 0 01-2-2.51 9.07 9.07 0 01-.95-3.45h19.8A1.89 1.89 0 0092.06 25zm-21.63-3a7.63 7.63 0 012.64-4.39 8.31 8.31 0 015.44-1.75 8 8 0 015.8 2.14 7.51 7.51 0 012.2 4z" fill="#4771b4"/><path class="j" d="M36.51 39.4a15.09 15.09 0 01-6.51-.55 12.05 12.05 0 01-5-3l-.05-.43 2.58-3.31.48-.06a8.53 8.53 0 003.48 2.18 9.52 9.52 0 004.41.49 5.78 5.78 0 003.1-1.31A2.68 2.68 0 0040 31a2.86 2.86 0 00-.66-1.58 4.55 4.55 0 00-1.35-1 9.57 9.57 0 00-1.85-.7L34 27.1l-3.17-.83a11.42 11.42 0 01-2.83-1.2 7.62 7.62 0 01-2.2-2 6.1 6.1 0 01-1.13-3 6.88 6.88 0 011.94-5.92 11.11 11.11 0 016.86-3 13.17 13.17 0 015.77.54 10 10 0 014.41 2.72l.06.48-2.6 3.2-.43.05a8.74 8.74 0 00-3.23-2 7.87 7.87 0 00-3.53-.41 4.89 4.89 0 00-2.77 1.13A2.38 2.38 0 0030.3 19a2.49 2.49 0 001.7 2.14 42.14 42.14 0 004.07 1.29q1.8.48 3.44 1a11.26 11.26 0 012.92 1.41A8.1 8.1 0 0144.61 27a7.5 7.5 0 011.11 3.31 6.79 6.79 0 01-.36 3.28 7.72 7.72 0 01-1.79 2.72 9.78 9.78 0 01-3 2 14.43 14.43 0 01-4.06 1.09z"/><circle class="j" cx="26.48" cy="33.95" r="2.4" transform="rotate(-7 26.479 33.95)"/><circle class="j" cx="42.18" cy="16.3" r="2.4" transform="rotate(-7 42.165 16.282)"/><path d="M172.76 31.37c5.51 4.59 12.5 2.31 14.4-2.31" fill="none" stroke="#f1f2f2" stroke-linecap="square" stroke-width=".45" stroke-miterlimit="10"/></svg>
