<svg xmlns="http://www.w3.org/2000/svg" viewBox="0 0 512 512"><path fill="#FFFFFF" d="M437.019 74.981C388.667 26.629 324.38 0 256 0 196.696 0 138.885 20.747 93.213 58.417a8.617 8.617 0 0010.965 13.293C146.77 36.58 200.688 17.232 256 17.232c131.657 0 238.767 107.11 238.766 238.768 0 59.105-21.769 115.828-61.299 159.722a8.616 8.616 0 00.638 12.168 8.585 8.585 0 005.764 2.214 8.596 8.596 0 006.405-2.851c42.385-47.062 65.727-107.882 65.727-171.254-.002-68.379-26.63-132.666-74.982-181.018zM421.677 439.89a8.616 8.616 0 00-12.14-1.051c-42.901 36.065-97.429 55.927-153.538 55.927-131.657 0-238.767-107.11-238.767-238.767 0-59.932 22.307-117.247 62.813-161.384a8.617 8.617 0 00-12.696-11.651C23.917 130.289-.001 191.741-.001 256c0 68.381 26.629 132.668 74.981 181.02C123.333 485.371 187.621 512 256 512c60.16 0 118.625-21.297 164.626-59.97a8.616 8.616 0 001.051-12.14z"/><path fill="#FFFFFF" d="M289.368 189.061h-66.735a8.615 8.615 0 00-8.616 8.616v225.799a8.616 8.616 0 008.616 8.616h66.735a8.616 8.616 0 008.616-8.617V197.677a8.615 8.615 0 00-8.616-8.616zm-8.615 225.799H231.25V206.293h49.503V414.86zM256 78.701c-26.429 0-47.93 21.502-47.93 47.93 0 26.429 21.501 47.93 47.93 47.93s47.93-21.502 47.93-47.93c0-26.429-21.501-47.93-47.93-47.93zm0 78.628c-16.927 0-30.698-13.771-30.698-30.698S239.074 95.933 256 95.933c16.927 0 30.698 13.771 30.698 30.698S272.927 157.329 256 157.329z"/></svg>
