<svg xmlns="http://www.w3.org/2000/svg" width="533.3" height="533.3"><path fill="#FFF" d="M438.5 307c-7-7-22.8-10.7-46.8-11-16.3-.2-35.8 1.2-56.4 4.1-9.2-5.3-18.6-11-26-18a191 191 0 0 1-47.3-73.3l1.8-7.4s11.3-64 8.3-85.7a25 25 0 0 0-1.4-6.2l-1-2.5c-3-7-9.1-14.6-18.5-14.2l-5.6-.1h-.1C235 92.7 226.4 98 224 106c-6.8 25.2.2 63 13 111.8l-3.2 8a879.4 879.4 0 0 1-30.8 64.7l-1.3 2.5a1086 1086 0 0 1-29.1 53.6l-9 4.8c-.7.3-16.2 8.5-19.9 10.7-30.8 18.5-51.3 39.4-54.7 56-1 5.3-.2 12 5.2 15.2l8.8 4.4c3.8 1.9 7.8 2.9 11.9 2.9 22 0 47.5-27.4 82.7-88.8A823.3 823.3 0 0 1 325 321.7c30.8 17.4 68.8 29.4 92.7 29.4 4.3 0 8-.4 11-1.2 4.5-1.2 8.4-3.8 10.8-7.4 4.6-7 5.6-16.6 4.3-26.5-.4-2.9-2.7-6.5-5.3-9zM110.2 424c4-11 20-32.6 43.4-51.9l8.4-7.7c-24.5 39.1-41 54.7-51.8 59.6zm139-320c7 0 11 17.8 11.4 34.5a70.7 70.7 0 0 1-8.4 37.1c-4-12.8-6-33-6-46.3 0 0-.3-25.3 3-25.3zm-41.5 228c5-8.8 10-18 15.3-28 12.8-24 20.8-43 26.8-58.4A193.3 193.3 0 0 0 301 306c-35.5 7-66.2 15.5-93.3 26zm224-2a31.9 31.9 0 0 1-12.3 2.2c-12.9 0-28.8-6-51.1-15.5 8.5-.6 16.4-1 23.5-1 12.9 0 16.7 0 29.3 3.2s12.8 9.8 10.6 11.1zM470.5 104l-74.4-74.4A116 116 0 0 0 325 0H75C52 0 33.3 18.8 33.3 41.7v450c0 22.9 18.8 41.6 41.7 41.6h383.3c23 0 41.7-18.7 41.7-41.6V175c0-23-13.3-55-29.5-71.1zM447 127.4a44 44 0 0 1 4.8 6h-85.1V48.1a44 44 0 0 1 5.9 4.8l74.4 74.4zm19.7 364.3c0 4.5-3.8 8.3-8.4 8.3H75a8.4 8.4 0 0 1-8.3-8.3v-450c0-4.6 3.8-8.4 8.3-8.4h250c2.5 0 5.3.4 8.3 1v132.4h132.5c.5 3 .9 5.8.9 8.3v316.7z"/></svg>