<svg version="1" xmlns="http://www.w3.org/2000/svg" width="265" height="265"><path fill="#bd5d38" d="M259 126c6-8 7-17 5-24-3-8-10-14-19-17l-63-10-28-55v-1c-6-8-14-13-22-13s-16 4-22 12L78 75 21 85h-1c-9 3-16 9-19 17-2 7-1 16 5 24l43 44-7 62v1c-1 8 1 15 6 20 7 6 17 8 28 3l56-31 57 31c4 2 9 3 13 3 6 0 11-2 15-6 4-5 7-12 6-20l-7-63 42-43 1-1zm-12-9l-46 48 8 69-2 9c-3 2-7 2-12 0l-63-34-62 34c-5 2-9 2-12 0l-2-9 8-69-47-48c-2-4-3-8-2-11s4-6 8-7l64-11 35-62c6-7 14-7 19 1l31 61 69 11c5 2 8 4 9 7s0 7-3 11z"/><path fill="#bd5d38" d="M149 129l7-4c3-4 4-8 4-14 0-7-2-13-8-17s-12-7-20-7l-11 2c-4 1-6 3-8 5-3 3-6 6-7 9l-2 13h16c0-5 1-8 3-11 1-2 4-4 9-4 3 0 6 1 8 4 2 2 3 4 3 8 0 5-2 8-6 10l-12 2v12l13 2c5 2 7 6 7 11s-1 8-4 10c-2 3-5 4-9 4-5 0-9-2-11-6l-2-9h-17c0 7 2 12 4 17 5 8 14 12 26 12 10 0 18-3 23-8 5-6 8-13 8-20s-2-13-7-17c-3-3-5-4-7-4z"/></svg>