<svg xmlns="http://www.w3.org/2000/svg" viewBox="0 0 368 368"><path fill="#868e96" d="M88 128.001H56c-13.232 0-24 10.768-24 24v80c0 4.416 3.576 8 8 8s8-3.584 8-8v-24h48v24c0 4.416 3.576 8 8 8s8-3.584 8-8v-80c0-13.232-10.768-24-24-24zm8 64H48v-40c0-4.408 3.584-8 8-8h32c4.416 0 8 3.592 8 8v40zM192 128.001h-32c-4.424 0-8 3.584-8 8v96c0 4.416 3.576 8 8 8s8-3.584 8-8v-24h24c22.056 0 40-17.944 40-40s-17.944-40-40-40zm0 64h-24v-48h24c13.232 0 24 10.768 24 24s-10.768 24-24 24zM328 224.001h-24v-80h24c4.424 0 8-3.584 8-8s-3.576-8-8-8h-64c-4.424 0-8 3.584-8 8s3.576 8 8 8h24v80h-24c-4.424 0-8 3.584-8 8s3.576 8 8 8h64c4.424 0 8-3.584 8-8s-3.576-8-8-8zM344 48.001H219.312l-29.656-29.656a7.991 7.991 0 0 0-11.312 0l-29.656 29.656H24c-13.232 0-24 10.768-24 24v24c0 4.416 3.576 8 8 8s8-3.584 8-8v-24c0-4.408 3.584-8 8-8h128c2.128 0 4.16-.84 5.656-2.344L184 35.313l26.344 26.344A7.965 7.965 0 0 0 216 64.001h128c4.416 0 8 3.592 8 8v24c0 4.416 3.576 8 8 8s8-3.584 8-8v-24c0-13.232-10.768-24-24-24zM360 264.001c-4.424 0-8 3.584-8 8v24c0 4.408-3.584 8-8 8H216c-2.128 0-4.16.84-5.656 2.344L184 332.689l-26.344-26.344a7.965 7.965 0 0 0-5.656-2.344H24c-4.416 0-8-3.592-8-8v-24c0-4.416-3.576-8-8-8s-8 3.584-8 8v24c0 13.232 10.768 24 24 24h124.688l29.656 29.656a7.978 7.978 0 0 0 5.656 2.344 7.978 7.978 0 0 0 5.656-2.344l29.656-29.656H344c13.232 0 24-10.768 24-24v-24c0-4.416-3.576-8-8-8z"/></svg>