<svg xmlns="http://www.w3.org/2000/svg" width="31.457" height="31.457"><path fill="#868e96" d="M17.199 0c-.664 0-1.233.252-1.705.757-.47.504-.704 1.113-.704 1.824 0 .688.236 1.285.705 1.79.471.504 1.039.757 1.705.757.642 0 1.199-.252 1.67-.757.47-.505.705-1.102.705-1.79 0-.711-.235-1.319-.705-1.824C18.398.252 17.841 0 17.199 0zM27.322 19.79c-1.01 0-1.508-.769-1.508-2.306v-6.07h3.176V7.619h-3.18c-.012-.5-.04-1.651-.06-2.191h-3.709v2.191h-2.049v3.794h2.049v5.897c0 1.928.242 3.34.727 4.233.643 1.194 1.77 1.79 3.443 1.79 1.193 0 2.244-.229 3.031-.688v-3.441c-.627.392-1.209.586-1.92.586zM15.005 7.674c-1.348.526-2.603.793-3.681.793-.962-.551-1.96-.826-3.084-.826-1.561 0-2.901.516-4.026 1.548-1.17 1.102-1.757 2.479-1.757 4.13 0 1.102.318 2.133.963 3.097.573.895 1.173 1.469 1.958 1.721v.069c-.785.321-1.134 1.124-1.134 2.41 0 .987.349 1.721 1.134 2.202v.07c-2.17.709-3.163 2.029-3.163 3.957 0 1.676.729 2.902 2.153 3.682 1.123.619 2.567.93 4.311.93 4.244 0 6.371-1.777 6.371-5.335 0-2.226-1.638-3.591-4.919-4.097-.759-.114-1.329-.389-1.72-.825-.299-.3-.445-.597-.445-.896 0-.85.458-1.343 1.377-1.479 1.398-.207 2.539-.854 3.425-1.944.882-1.09 1.324-2.37 1.324-3.838 0-.458-.139-.952-.321-1.479.541-.126.931-.24 1.234-.347v12.102h4.155V6.953h-4.155v.721zm-6.386 17.14c1.928 0 2.891.586 2.891 1.754 0 1.24-.883 1.859-2.65 1.859-2.019 0-3.027-.597-3.027-1.789-.002-1.215.928-1.824 2.786-1.824zm-.241-9.085c-1.445 0-2.168-.792-2.168-2.375 0-1.698.723-2.547 2.168-2.547.689 0 1.229.264 1.617.792.321.481.481 1.055.481 1.721.001 1.606-.698 2.409-2.098 2.409z"/></svg>