<svg xmlns="http://www.w3.org/2000/svg" width="64" height="64"><path fill="#868e96" d="M39.755 53.777a.985.985 0 0 1-.848-.479l-7.455-12.435-13.943 3.791a.985.985 0 0 1-1.1-.495L.117 13.534a.985.985 0 0 1 .737-1.442l13.833-1.86a.985.985 0 0 1 .98.468L32.364 38.57l19.406-5.277-6.47-9.139a.985.985 0 0 1 .55-1.53l9.079-2.145a.985.985 0 0 1 .996.34l7.857 9.811a.985.985 0 0 1-.512 1.568l-8.253 2.25 7.224 10.18a.985.985 0 0 1-.479 1.502l-21.695 7.587a.985.985 0 0 1-.313.06zm-6.328-13.453l6.757 11.268 19.692-6.894-6.878-9.695zM2.521 13.842l15.247 28.7 12.655-3.434-16.116-26.834zm45.25 10.366l6.053 8.534 7.527-2.047-6.548-8.154z"/></svg>