<svg xmlns="http://www.w3.org/2000/svg" width="1em" height="1em" fill="#FFF" fill-rule="evenodd" style="flex:none;line-height:1" viewBox="0 0 24 24"><path fill-opacity=".3" d="M2.84 2a1.273 1.273 0 1 0 0 2.547h14.107a1.273 1.273 0 1 0 0-2.547zm5.095 3.33a1.273 1.273 0 0 0 0 2.548H22.04a1.274 1.274 0 0 0 0-2.547zM3.624 9.935c0-.704.57-1.274 1.274-1.274h14.106a1.274 1.274 0 0 1 0 2.547H4.898c-.703 0-1.274-.57-1.274-1.273m-2.351 2.253a1.273 1.273 0 1 0 0 2.547H15.38a1.274 1.274 0 0 0 0-2.547zm2.351 4.604c0-.704.57-1.274 1.274-1.274h14.106a1.273 1.273 0 1 1 0 2.547H4.898c-.703 0-1.274-.57-1.274-1.273m9.405 2.057a1.273 1.273 0 1 0 0 2.547h9.698a1.273 1.273 0 1 0 0-2.547z"/><path d="M2.84 2a1.273 1.273 0 1 0 0 2.547h10.287a1.274 1.274 0 0 0 0-2.547zm5.095 3.33a1.273 1.273 0 0 0 0 2.548H18.22a1.274 1.274 0 0 0 0-2.547zM3.624 9.935c0-.704.57-1.274 1.274-1.274h10.286a1.273 1.273 0 0 1 0 2.547H4.898c-.703 0-1.274-.57-1.274-1.273m-2.351 2.253a1.273 1.273 0 1 0 0 2.547H11.56a1.274 1.274 0 0 0 0-2.547zm2.351 4.604c0-.704.57-1.274 1.274-1.274h10.286a1.273 1.273 0 1 1 0 2.547H4.898c-.703 0-1.274-.57-1.274-1.273m9.405 2.057a1.273 1.273 0 1 0 0 2.547h5.78a1.273 1.273 0 1 0 0-2.547z"/></svg>