<svg xmlns="http://www.w3.org/2000/svg" preserveAspectRatio="xMinYMin meet" viewBox="0 0 256 252"><g fill="#868e96"><path d="M235.65 194.21c-13.92-.35-24.7 1.05-33.75 4.87-2.61 1.05-6.79 1.05-7.14 4.35 1.4 1.4 1.57 3.66 2.79 5.57 2.09 3.48 5.74 8.18 9.04 10.62a163.8 163.8 0 0 0 11.14 8c6.78 4.17 14.44 6.6 21.05 10.78 3.83 2.44 7.65 5.57 11.48 8.18 1.92 1.4 3.13 3.66 5.57 4.52v-.52c-1.22-1.56-1.57-3.82-2.78-5.56-1.74-1.74-3.48-3.31-5.22-5.05a82.52 82.52 0 0 0-18.1-17.57c-5.56-3.83-17.74-9.05-20-15.49l-.35-.34c3.82-.35 8.35-1.74 12-2.79 5.92-1.56 11.31-1.22 17.4-2.78a151 151 0 0 0 8.35-2.44V197c-3.13-3.13-5.4-7.31-8.7-10.27a231.97 231.97 0 0 0-28.7-21.4c-5.4-3.48-12.36-5.74-18.1-8.7-2.09-1.04-5.57-1.56-6.78-3.3-3.14-3.83-4.88-8.88-7.14-13.4a439.62 439.62 0 0 1-14.27-30.27c-3.13-6.79-5.04-13.57-8.87-19.84-17.92-29.57-37.4-47.5-67.33-65.06-6.44-3.66-14.09-5.22-22.27-7.14-4.35-.17-8.7-.52-13.05-.7-2.78-1.21-5.56-4.52-8-6.08C34.01 4.57 8.42-9 1.12 8.92c-4.7 11.31 6.96 22.45 10.96 28.19 2.96 4 6.79 8.52 8.88 13.05 1.21 2.95 1.56 6.09 2.78 9.22 2.78 7.65 5.4 16.18 9.05 23.31 1.91 3.66 4 7.48 6.43 10.79 1.4 1.91 3.83 2.78 4.35 5.91-2.43 3.48-2.6 8.7-4 13.05-6.26 19.66-3.82 44.02 5.05 58.46 2.78 4.35 9.4 13.92 18.27 10.26 7.83-3.13 6.09-13.04 8.35-21.74.52-2.1.17-3.48 1.21-4.88v.35c2.44 4.87 4.87 9.57 7.14 14.44 5.4 8.53 14.78 17.4 22.61 23.32 4.18 3.13 7.49 8.52 12.7 10.44v-.53h-.34c-1.05-1.56-2.61-2.26-4-3.48a84.35 84.35 0 0 1-9.05-10.44c-7.3-9.74-13.75-20.53-19.49-31.66-2.78-5.4-5.22-11.3-7.48-16.7-1.04-2.1-1.04-5.22-2.78-6.26-2.61 3.82-6.44 7.13-8.35 11.83-3.3 7.48-3.66 16.7-4.87 26.27-.7.17-.35 0-.7.35-5.57-1.4-7.48-7.14-9.57-12.01-5.22-12.35-6.09-32.19-1.57-46.45 1.22-3.66 6.44-15.14 4.35-18.62-1.04-3.3-4.52-5.22-6.43-7.83a70.1 70.1 0 0 1-6.27-11.13c-4.17-9.75-6.26-20.53-10.78-30.28-2.1-4.52-5.74-9.22-8.7-13.4-3.3-4.69-6.96-8-9.57-13.56-.87-1.92-2.09-5.05-.7-7.14.35-1.39 1.05-1.9 2.44-2.26 2.26-1.91 8.7.52 10.96 1.57 6.44 2.6 11.83 5.04 17.22 8.7 2.44 1.74 5.05 5.04 8.18 5.91h3.65c5.57 1.22 11.83.35 17.05 1.92 9.23 2.95 17.58 7.3 25.06 12a154.35 154.35 0 0 1 54.28 59.5c2.09 4 2.96 7.66 4.87 11.83 3.66 8.53 8.18 17.23 11.83 25.58 3.66 8.17 7.13 16.53 12.35 23.31 2.61 3.65 13.05 5.57 17.75 7.48 3.48 1.57 8.87 2.96 12 4.87a305.64 305.64 0 0 1 17.4 11.83c2.79 2.1 11.49 6.44 12 9.92z"/><path d="M58.19 43.02c-2.96 0-5.05.35-7.14.87v.35h.35c1.4 2.78 3.83 4.7 5.57 7.13 1.4 2.79 2.6 5.57 4 8.36l.35-.35c2.44-1.74 3.65-4.53 3.65-8.7-1.04-1.22-1.22-2.44-2.09-3.66-1.04-1.74-3.3-2.6-4.7-4z"/></g></svg>