<svg xmlns="http://www.w3.org/2000/svg" width="50" height="50" fill="#868e96"><path d="M31.168 8c-.469-.012-.879.168-1.09.688-.36.87.535 1.722.856 2.167.222.31.511.657.671 1.004.106.23.122.461.211.704.223.597.579 1.277.864 1.832.144.28.304.574.488.824.113.152.305.222.336.457-.188.265-.2.676-.305 1.011-.476 1.504-.297 3.375.395 4.485.215.344.718 1.074 1.406.797.602-.246.469-1.008.64-1.684.04-.148.016-.262.094-.363v.031c.18.367.364.735.547 1.098.41.656 1.133 1.34 1.742 1.804.317.239.567.653.977.793v-.03h-.031c-.078-.126-.203-.177-.305-.274a6.762 6.762 0 0 1-.7-.797 18.043 18.043 0 0 1-1.495-2.442c-.215-.41-.403-.863-.582-1.28-.07-.165-.07-.407-.215-.493-.2.309-.488.555-.64.918-.243.578-.278 1.285-.368 2.016-.055.02-.031.004-.059.03-.425-.105-.578-.542-.734-.917-.398-.95-.476-2.48-.121-3.57.09-.286.5-1.176.336-1.438-.078-.262-.344-.41-.488-.61a4.617 4.617 0 0 1-.489-.855c-.328-.742-.636-1.601-.984-2.351-.164-.36-.441-.72-.672-1.04-.254-.35-.535-.609-.734-1.038-.067-.149-.164-.391-.059-.547.031-.106.078-.149.184-.184.176-.137.668.043.855.121.488.203.899.399 1.313.672.199.133.398.387.64.461h.274c.433.098.914.027 1.312.152.711.215 1.348.551 1.922.914a11.85 11.85 0 0 1 4.184 4.579c.16.304.23.597.37.918.278.648.634 1.32.915 1.953.277.636.55 1.273.945 1.8.207.278 1.012.43 1.375.582.254.11.676.223.914.368.465.277.91.609 1.344.918.219.152.883.484.918.761-1.074-.027-1.895.07-2.594.367-.199.086-.52.086-.55.336.105.114.124.286.21.426.168.27.45.633.704.824.277.207.558.43.855.614.523.316 1.11.5 1.617.82.297.191.598.43.887.64.144.11.238.274.426.34v-.03c-.098-.126-.121-.298-.211-.427l-.403-.402a6.523 6.523 0 0 0-1.402-1.34c-.418-.3-1.352-.707-1.523-1.191l-.032-.031c.293-.032.641-.141.914-.215.461-.121.868-.09 1.34-.211.215-.063.43-.125.645-.184v-.125c-.238-.242-.41-.57-.672-.793-.684-.582-1.43-1.164-2.2-1.648-.425-.27-.952-.445-1.402-.672-.152-.078-.418-.117-.52-.246-.237-.3-.366-.684-.55-1.035a39.548 39.548 0 0 1-1.098-2.32c-.23-.528-.382-1.051-.671-1.528-1.387-2.277-2.88-3.656-5.192-5.008-.492-.289-1.082-.398-1.707-.547-.34-.023-.672-.043-1.012-.062-.203-.086-.418-.336-.609-.461-.48-.3-1.426-.824-2.207-.836zm3.309 3.313a2.275 2.275 0 0 0-.551.062v.031h.031c.105.219.297.36.43.547l.3.645.032-.032c.187-.132.277-.347.277-.671-.078-.079-.09-.18-.152-.274-.09-.129-.258-.2-.367-.309zM1.867 23.995c-.3.012-.629.07-.984.184-.594.18-.887.535-.887 1.258V33H2v-7.379l2.777 6.309c.344.785.813 1.066 1.73 1.066.923 0 1.372-.281 1.716-1.066L11 25.78V33h2v-7.563c0-.722-.29-1.078-.887-1.257-1.422-.45-2.379-.063-2.808.91l-2.852 6.414-2.758-6.414c-.312-.73-.937-1.13-1.828-1.094zm24.38.004c-.79 0-3.247.094-3.247 2v1.234c0 .875.77 1.59 2.438 1.766.187.012.375.027.562.027 0 0 1.945-.039 2-.027 1.125 0 1 .875 1 1v1c0 .137-.031 1-1.012 1H23v1h5.008c.656 0 1.293-.137 1.8-.375.844-.387 1.192-.91 1.192-1.598v-1.43C31 28.063 29.094 28 28 28h-2c-.785 0-.906-.477-1-1v-1c.094-.398.27-.938.965-1H31v-1zm7.733 0c-1.476.203-1.996.938-1.996 2v5c0 .973.543 1.559 1.66 1.863.376.106.715.149 1.036.149L36.906 33h1.309l1.113 1h2.25l-1.547-1.395c.727-.3.953-.761.953-1.625V26c0-1.063-.691-1.797-2.168-2zM42 24v6.957c0 1.207.684 1.887 2.492 2.023.168.008.34.02.508.02h5v-1h-4.621C44.348 32 44 31.566 44 30.95V24zm-6.828 1h2.574c.68 0 1.137.547 1.238 1 0 0 .016 4.656.016 5 0 .344-.191.5-.191.5l-.543-.5H36l1.113 1h-1.941c-.695 0-1.086-.516-1.188-1v-4.898c0-.532.407-1.102 1.188-1.102zM14 27c.04.04 0 4.262 0 4.344.016.875 1.125 1.64 2.863 1.656H20v.066c0 .188.137.813-1 .934h-5v1h5.215c.883-.027 2.797-.227 2.785-1.758 0-.027.008-6.242 0-6.242h-2v5c-.031 0-2.477.008-2.969 0-.965-.016-1.047-.566-1.031-.777V27z"/></svg>