<svg viewBox="0 0 256 282" xmlns="http://www.w3.org/2000/svg" preserveAspectRatio="xMinYMin meet"><g fill="#868e96"><path d="M116.5 3.6c7-4 16-4 23 0l105 59.3c6.6 3.7 11 11 10.9 18.6v119c0 7.9-4.8 15.4-11.7 19-35 19.6-69.8 39.3-104.7 59-7 4-16.3 3.8-23.2-.6l-31.4-18.2c-2.1-1.3-4.5-2.3-6-4.4 1.3-1.8 3.7-2 5.6-2.8 4.4-1.3 8.4-3.6 12.4-5.7 1-.7 2.3-.5 3.2.2 9 5 17.8 10.4 26.8 15.4 2 1.1 3.9-.3 5.5-1.2l102.7-58c1.3-.6 2-2 1.9-3.4V82.1c.1-1.6-.8-3-2.2-3.7L130 19.7a3.6 3.6 0 00-4 0L21.7 78.5c-1.4.6-2.4 2-2.2 3.6V200a3.3 3.3 0 001.9 3.3l27.8 15.7c5.3 2.8 11.7 4.5 17.4 2.3 5.1-1.8 8.7-7 8.6-12.4v-117c-.1-1.8 1.5-3.2 3.2-3h13.4c1.9 0 3.1 1.8 3 3.5l-.1 117.8c0 10.5-4.3 21.9-14 27a43 43 0 01-38.4-1c-10.2-5.2-20-11.2-30-16.6a21.8 21.8 0 01-11.7-19v-119c0-7.7 4.5-15.2 11.3-18.9l104.6-59z"/><path d="M147 86c15.1-1 31.4-.6 45.1 6.9a34.2 34.2 0 0116.7 29.6c-.3 1.6-2 2.4-3.5 2.3H192c-2 0-3-1.7-3.2-3.3a20.2 20.2 0 00-9.7-14c-8.1-4-17.6-3.8-26.4-3.7a36 36 0 00-19 4.7c-4.2 2.9-5.5 8.7-4 13.4 1.5 3.4 5.3 4.4 8.5 5.4 18.4 4.8 37.8 4.4 55.8 10.7 7.4 2.5 14.7 7.5 17.2 15.3 3.4 10.5 2 23-5.5 31.4a43.9 43.9 0 01-23.6 12.7 113.2 113.2 0 01-35.5 1.5 56 56 0 01-31.3-11.8 32.8 32.8 0 01-10.6-25.9c0-1.6 1.7-2.7 3.3-2.6h13.3c1.8-.1 3 1.4 3.2 3 .8 5.4 2.8 11 7.5 14.3 9 5.8 20.3 5.4 30.7 5.5 8.6-.3 18.2-.4 25.2-6.1 3.7-3.2 4.7-8.6 3.8-13.3-1.1-4-5.2-5.7-8.8-7-18-5.7-37.7-3.6-55.6-10-7.3-2.6-14.3-7.5-17.1-15a30.5 30.5 0 016-31.7C124.4 90.2 136 87 147 86z"/></g></svg>
