<svg xmlns="http://www.w3.org/2000/svg" viewBox="0 0 50 50"><path fill="#868e96" d="M25 12c-6.492 0-12.379 1.36-16.727 3.629C3.926 17.899 1 21.168 1 25c0 3.832 2.926 7.102 7.273 9.371C12.621 36.641 18.508 38 25 38c6.492 0 12.379-1.36 16.727-3.629C46.074 32.101 49 28.832 49 25c0-3.832-2.926-7.102-7.273-9.371C37.379 13.359 31.492 12 25 12zm0 2c6.21 0 11.824 1.324 15.8 3.402C44.778 19.477 47 22.203 47 25c0 2.797-2.223 5.523-6.2 7.598C36.825 34.676 31.21 36 25 36c-6.21 0-11.824-1.324-15.8-3.402C5.222 30.523 3 27.797 3 25c0-2.797 2.223-5.523 6.2-7.598C13.175 15.324 18.79 14 25 14zm-2.492 2L20 28h2.625l1.266-6h2.097c.668 0 1.114.11 1.32.332.204.223.247.645.13 1.25L26.48 28h2.665l1.039-4.777c.222-1.145.054-1.985-.5-2.496-.567-.52-1.563-.727-3.047-.727h-2.34l.832-4zM11 20L8.973 31h2.644l.528-3h1.648c3.445 0 5.32-.797 6.02-3.754.601-2.543-.938-4.246-3.481-4.246zm21 0l-2.027 11h2.644l.528-3h1.648c3.445 0 5.32-.797 6.02-3.754.601-2.543-.938-4.246-3.481-4.246zm-18.727 2h2.059c1.711 0 2.07.77 1.98 1.625C17.082 25.832 15.707 26 14.23 26h-1.714zm21 0h2.059c1.711 0 2.07.77 1.98 1.625C38.083 25.832 36.708 26 35.23 26h-1.714z"/></svg>