<svg version="1.0" xmlns="http://www.w3.org/2000/svg" width="32.7" height="32.7" viewBox="0 0 1280 1280"><g fill="#868e96"><path d="M.1 307.7c.1 172.7.6 301.9 1 294.3a639.2 639.2 0 01187-415A638.5 638.5 0 01602.5 1.1C609.7.6 477 .2 307.8.1L0 0l.1 307.7zM678 1.1a638.3 638.3 0 01415 187 638.5 638.5 0 01185.9 414.4c.5 7.1.9-125.5 1-294.8L1280 0 972.3.1c-175.1.1-302 .5-294.3 1z"/><path d="M610.5 192.6a450 450 0 00-416.2 399.9c-1.4 11-1.8 21.6-1.7 49 0 37.5 1 49.9 7 82.2 3.4 18.6 13 55.3 14.4 55.3.3 0 2.3-7.1 4.4-15.8a473.5 473.5 0 0188.4-178.4 541 541 0 0158.5-59.7A370.2 370.2 0 01522 446.7c30-6.9 54.4-9.2 88-8.4 32 .9 51.6 3.7 79.5 11.3a349.6 349.6 0 0168.7 25.4 380 380 0 0185 57.3c10.4 9.1 11.9 10.8 13.7 15.7 8.2 23 13.6 39.2 16.7 50.9 4.1 15.3 4 18.8-.2 32.2-13.2 41.8-40.2 85.7-81.8 132.9-5.5 6.3-28.1 29.7-50.1 52l-40 40.5-5.9 18c-3.3 9.9-6.3 18.3-6.6 18.8-.9 1-20.4-6.9-45.1-18.4a667.6 667.6 0 01-81.9-46.3c-13.2-9-14-9.5-11.4-6.5 21 24.7 48.6 52.4 72.2 72.6 15.9 13.7 41.3 33 51.2 39l6.5 4 .7 12.9a78 78 0 0015.7 47.5c14.3 19 38 32 72.1 39.7a171 171 0 0044 5.6c22.8.1 42.3-2.2 60.3-7.3 3.7-1 6.9-1.6 7.1-1.2.2.3 4.5 14.3 9.6 31.1a2303 2303 0 0012.1 39.5c1.6 5 2.9 9.6 2.9 10.3 0 .9-8.3 1.2-37.8 1.2h-37.9l-4.8-15.8-7.6-24.7-4.4-14.8c-1.4-4.7-2-5.7-3.3-5.2a444.6 444.6 0 01-176.2 32.2c-54-1.1-98.2-9.4-149.3-27.9-7.6-2.8-14-4.8-14.3-4.6-.2.3-1.9 5.6-3.8 11.9l-8.6 28.4a845 845 0 00-5.7 18.7c-.5 1.7-3.2 1.8-38.4 1.8-24.3 0-37.9-.4-37.9-1 0-.5 1.3-5.1 2.9-10.2 6.1-19.2 25.1-82.7 25.1-83.7 0-.9-27.4-20.1-28.7-20.1a555.2 555.2 0 00-146.1 115.3l-6.3 6.9-5.7-4.8c-11-9.2-50-49-62.7-63.9a639.3 639.3 0 01-152.4-378C.6 670.3.2 803 .1 972.2L0 1280l308.8-.2c169.8-.1 306.5-.3 303.7-.5a647.5 647.5 0 01-237.8-56.9c-8.1-3.6-8.8-4.1-8.4-6.4 5.9-32.7 8.7-54.1 8.7-66.8v-5.2l264.8.2 264.7.3.7 11.5c1 16.4 3.5 35.5 6.3 49.3a66.5 66.5 0 012 12.7c-.8 1.3-29.8 13.8-47.9 20.6a645.7 645.7 0 01-198.1 40.7c-3.8.2 132.4.4 302.8.5l309.7.2-.2-308.3c-.1-169.5-.3-305.3-.5-301.7a640.3 640.3 0 01-152.8 385.5 960 960 0 01-62.7 63.9l-5.7 4.8-5.8-6.4c-33-36.3-68-66.3-108.1-92.6l-14.3-9.4 16.3-8.2c56.4-28.6 114.6-70.3 170.1-121.9 7-6.5 12.7-12.3 12.7-12.9 0-2.8-58.8-83.9-94.9-130.8-53.9-70.1-93.7-116.7-136.1-159.1-12.4-12.4-27-26.6-32.4-31.6l-9.9-9 5.8-10.9c16.8-31.7 36.9-57.2 56.4-72 35.8-27.1 72.8-28.2 107.9-3.4a231 231 0 0139.9 40.6c.6-.6-7.4-21.9-13-34.6a459 459 0 00-70.2-112.5 627 627 0 00-46.5-47.1 453 453 0 00-214.5-103.3c-30-5.2-41.8-6.2-74.5-6.6-17.3-.1-33.7-.1-36.5.1z"/><path d="M658 586.5c-8 1.8-19.1 7.2-24.7 11.9-4 3.5-5.7 4-82.5 23l-86 21.2c-4.3 1-7.8 2-7.8 2.4 0 .3 10.7 3.2 23.8 6.4l85.1 20.8 61.4 14.9 5.1 4.5a60.4 60.4 0 0095.8-26.2 73 73 0 00.8-36.6 62.8 62.8 0 00-38.5-40.7c-9-2.9-23.4-3.7-32.5-1.6zm25.9 9.9a23 23 0 013.7 34.4 22.3 22.3 0 01-30.6 1.4c-12.5-10.6-10.2-29.6 4.5-37.6 2.2-1.2 5.1-1.6 10.6-1.4 6.5.3 8.2.7 11.8 3.2zM1026.3 603.4c-20.9 9.9-24.8 60.3-6.1 79.5 3.3 3.4 9.9 7 12.8 7.1 4 0 9.2-2.4 13-6.1 3.6-3.6 11-16.5 11-19.4 0-.6 3.6-5.1 8-10l7.9-9-3.2-3.5-7.5-8.1a33.4 33.4 0 01-6.7-11.2c-6.4-17.7-17.4-24.9-29.2-19.3zm12.4 5.1c3.5 2.5 5.6 9.6 5.1 16.9-1.6 19.3-17 19.4-18.6 0-.8-10.2 3.3-18.4 9.3-18.4 1.1 0 3 .7 4.2 1.5z"/></g></svg>