<svg xmlns="http://www.w3.org/2000/svg" width="48" height="48" baseProfile="basic"><path fill="#868e96" d="m32.13 22.874-2.661-.591 2.07 2.955V34.4l7.096-5.911V18.441l-3.252 1.182-3.253 3.251zM15.574 22.874l2.661-.591-2.07 2.955V34.4L9.07 28.49V18.441l3.252 1.182 3.252 3.251z"/><path fill="#868e96" d="m17.052 25.83 2.365-3.547 1.478.887h5.913l1.478-.887 2.365 3.547v13.3l-1.774 2.66-2.07 2.069h-5.913l-2.07-2.069-1.774-2.66v-13.3zM31.539 40.016l3.843-3.842v-3.842l-3.843 3.251v4.433zM16.165 40.016l-3.843-3.842v-3.842l3.843 3.251v4.433z"/><path fill="#7b7e81" d="m24.443 19.143 4.529-10.969 1.088 2.583-3.548 11.231h-2.07v-2.845zM18.841 7.914l4.42 11.419v2.655h-1.774l-3.843-11.231 1.197-2.843z"/><path fill="#868e96" d="m8.774 17.259 12.713 4.729h.296L17.94 10.757 7 9.87l1.774 7.389zm30.452 0-12.713 4.729h-.296l3.548-11.231L41 9.87l-1.774 7.389z"/><path fill="#7b7e81" d="m36.863 9.279-6.211.59-1.228-2.791.806-1.936h2.496zM18.408 6.783l-1.356 3.086-6.21-.59 4.137-4.137h2.791zM11.619 10.251l6.387.491 3.832 11.251h-.393l-4.127-1.523-5.699-10.219zM36.283 10.251l-6.584.491-3.636 11.251.491-.01 3.832-1.415 5.897-10.317zM18.89 23.026l.491-.786 1.671.786h5.896l1.277-.786.59.786-4.962 8.451-4.963-8.451z"/><path fill="#868e96" d="m18.821 5.142 5.003 12.926 5.337-12.926h-10.34z"/></svg>