<svg xmlns="http://www.w3.org/2000/svg" version="1" viewBox="0 0 479 479"><g fill="#868e96"><path d="M167 266c14-9 18-28 9-43l-5-6a33 33 0 0 0-5-42 9 9 0 0 0-12 13 15 15 0 0 1-3 24s-24 16-27 21c-4 7-4 15 1 23a31 31 0 0 0 42 10zm-27-20c-2-2-1-3-1-3 1-2 4-5 9-8 4-3 8-4 10-4h1l2 2a13 13 0 0 1-21 13zM322 212a15 15 0 0 1-3-24 9 9 0 1 0-12-13 33 33 0 0 0-5 42l-6 6a31 31 0 0 0 52 33c5-8 5-16 1-23-3-5-27-21-27-21zm11 34a13 13 0 0 1-21-13l2-2h1l10 4c5 3 8 6 9 8 0 0 1 1-1 3zM188 175a21 21 0 0 1 0 30 9 9 0 1 0 13 12 39 39 0 0 0 0-55l-17-17a9 9 0 0 0-13 12l17 18z"/><path d="M284 220a9 9 0 0 0 7-15 21 21 0 0 1 0-30l17-18a9 9 0 1 0-13-12l-17 17a39 39 0 0 0 0 55l6 3z"/><path d="M476 147a227 227 0 0 0-221-58 249 249 0 0 0-31 0A227 227 0 0 0 3 147c-3 3-4 8-2 11l50 75a9 9 0 0 0 16-2l4-15 14 16-2 35c0 48 23 70 54 95l10 7a162 162 0 0 0 185 0l5-3c32-25 59-47 59-99l-2-34 14-17 4 15a9 9 0 0 0 16 2l49-75c3-3 2-8-1-11zM55 206v1l-34-52c27-26 61-44 97-52a202 202 0 0 0-63 103zm22-11a183 183 0 0 1 78-96h18c-27 9-47 25-62 48-11 16-18 37-23 61l-11-13zm249 157l-4 3a144 144 0 0 1-165 0l-9-7c-32-26-47-42-47-81 0-49 9-85 25-111 22-33 59-50 113-50 95 0 139 51 139 161 0 41-18 57-52 85zm41-205c-15-23-35-39-61-48h18a183 183 0 0 1 78 96l-11 14c-5-25-13-45-24-62zm57 60v-1a201 201 0 0 0-63-103c36 8 70 26 97 52l-34 52z"/><path d="M239 205c5 0 9-4 9-9v-64a9 9 0 0 0-18 0v64c0 5 4 9 9 9zM277 252a53 53 0 0 0-75 0l-46 45a39 39 0 0 0 0 55 38 38 0 0 0 38 10c12 9 29 14 45 14h1c16 0 33-5 45-14a39 39 0 0 0 38-10c15-15 15-40 0-55l-46-45zm-38 36c-12 0-21-9-21-20 0-4 2-14 21-14 20 0 22 10 22 14 0 11-10 20-22 20zm-70 51a21 21 0 0 1 0-29l32-32c4 14 16 25 31 27l-34 34a21 21 0 0 1-29 0zm71 19h-1c-9 0-19-3-28-7l11-10 17-2 18 2 10 10c-8 4-18 7-27 7zm70-19a21 21 0 0 1-29 0l-34-34c15-2 27-13 31-27l32 32c8 8 8 21 0 29z"/></g></svg>