<svg xmlns="http://www.w3.org/2000/svg" version="1" viewBox="0 0 480 480"><g fill="#868e96"><path d="M207 333H39c-4 0-7-3-7-7V53c0-4 3-7 7-7h402c4 0 7 3 7 7v60c12 1 23 5 32 12V53c0-21-18-39-39-39H39C18 14 0 32 0 53v273c0 22 18 39 39 39h135v53h-21a24 24 0 0 0 0 48h67c-8-12-13-26-13-42v-91z"/><path d="M342 442v-35h-71V185c0-5 4-8 9-8h159c5 0 9 3 9 8v69h12c7 0 14 2 20 5v-74c0-22-18-41-41-41H280c-23 0-41 19-41 41v239c0 22 18 41 41 41h69c-4-7-7-16-7-23z"/><path d="M460 274h-78c-11 0-20 9-20 20v148c0 11 9 20 20 20h78c11 0 20-9 20-20V294c0-11-9-20-20-20zm-74 24h70v128h-70V298zm35 154l-6-2c-1-2-3-4-3-7a8 8 0 0 1 17 0l-2 7-6 2z"/></g></svg>