<svg xmlns="http://www.w3.org/2000/svg" width="512" height="512" version="1"><path fill="#868e96" d="M422 282c-16 0-30 4-42 9-4-8-8-16-9-21-1-7-2-11-1-18 1-8 6-19 6-20s-1-5-11-5c-9 0-17 2-18 5l-4 13c-1 9-18 39-28 54-3-6-6-11-6-15-1-7-2-11-1-19 1-7 6-18 6-19s-1-5-11-5c-9 0-17 2-18 4l-4 14a2800 2800 0 0 1-37 84l-1 1-2 5-3 4c-1 0-2-6 0-14 3-18 11-45 11-46 0 0 2-5-5-7-7-3-9 1-10 1l-1 2s8-31-14-31c-13 0-31 15-40 28l-31 17-15 8-1-1c-26-28-73-47-71-84 0-13 5-49 91-91 70-35 127-26 137-4 13 30-31 87-104 95-28 3-42-8-46-12s-4-4-6-3-1 5 0 7c2 6 11 16 27 21 13 4 46 7 85-9 45-17 79-64 69-104-10-41-77-54-141-32-38 14-79 35-108 63-35 32-41 61-39 73 9 42 67 70 90 90l-3 2c-12 6-56 29-67 54-13 27 2 47 11 50 31 8 61-7 78-31 16-25 14-57 7-72h-1a1036 1036 0 0 1 27-15c-3 8-5 17-7 30-1 16 6 37 14 45 4 3 8 3 11 3 10 0 15-8 20-18l11-25s-7 37 12 37c7 0 13-9 16-13l1-1 1-2 18-33 22-51 5 18 9 22-4 6-7 9-22 27c-1 4-1 7 2 10 3 2 7 2 12 2l17-4 14-8c9-7 15-16 14-29 0-6-2-13-5-20l2-3c15-21 26-44 26-44l4 19 8 18a79 79 0 0 0-24 32c-6 15-2 22 6 24 4 0 9-1 13-3s10-4 15-8c9-7 18-16 17-28 0-6-2-12-4-17 12-5 26-8 45-5 40 4 48 29 46 40-1 10-10 16-12 18l-4 3c1 2 2 2 4 2 3-1 21-9 22-28 1-25-22-51-64-51zM114 386c-14 14-32 20-40 15-9-5-5-26 11-42 10-9 23-17 31-23l8-5h1l2-1c6 21 0 41-13 56zm96-66c-4 11-14 40-20 39-5-2-8-24-1-45 4-11 11-24 16-29 7-8 15-11 17-7s-9 35-12 42zm80 38c-2 1-4 2-5 1l1-1 14-16 8-10v1c0 13-13 22-18 25zm61-14c-1-1-1-4 4-15 2-4 6-11 14-17l1 7c0 17-12 23-19 25z"/></svg>