<svg version="1" xmlns="http://www.w3.org/2000/svg" width="265" height="265"><path fill="#bd5d38" d="M49 170l-7 62v1c-1 8 1 15 6 20 7 6 17 8 28 3l56-31 57 31c4 2 9 3 13 3 6 0 11-2 15-6 4-5 7-12 6-20l-7-63 42-43 1-1c6-8 7-17 5-24-3-8-10-14-19-17l-63-10-28-55v-1c-6-8-14-13-22-13s-16 4-22 12L78 75 21 85h-1c-9 3-16 9-19 17-2 7-1 16 5 24l43 44zm-34-64c1-3 4-6 8-7l64-11 35-62c6-8 14-7 19 1l31 61 69 11c5 2 8 4 9 7s0 7-3 11l-46 48 8 69-2 9c-3 2-7 2-12 0l-63-34-62 34c-5 2-9 2-12 0l-2-9 8-69-47-48c-2-4-3-8-2-11z"/><path fill="#bd5d38" d="M123 141c-9 6-15 13-18 18-2 6-4 11-4 18h61v-16h-39l4-4 9-7 7-5 13-11c3-5 5-11 5-18 0-8-2-15-8-20-5-5-13-8-22-8-12 0-20 5-25 13l-4 19h17l2-11c2-4 5-6 11-6 4 0 7 1 9 4 2 2 3 5 3 9s-2 9-6 12l-15 13z"/></svg>