<svg version="1" xmlns="http://www.w3.org/2000/svg" width="265" height="265"><path fill="#bd5d38" d="M42 232v1c-1 8 1 15 6 20 7 6 17 8 28 3l56-31 57 31c4 2 9 3 13 3 6 0 11-2 15-6 4-5 7-12 6-20l-7-63 42-43 1-1c6-8 7-17 5-24-3-8-10-14-19-17l-63-10-28-55v-1c-6-8-14-13-22-13s-16 4-22 12L78 75 21 85h-1c-9 3-16 9-19 17s-1 16 5 24l43 44-7 62zM17 117c-2-4-3-8-2-11s4-6 8-7l64-11 35-62c6-7 14-7 19 1l31 61 69 11c5 2 8 4 9 7s0 7-2 11l-47 48 8 69-2 9c-3 2-7 2-12 0l-63-34-62 34c-5 2-9 2-12 0l-2-9 8-69-47-48z"/><path fill="#bd5d38" d="M136 181h17v-19h10v-14h-10V93h-19l-32 54v15h34v19zm-22-33l22-38v38h-22z"/></svg>